<svg xmlns="http://www.w3.org/2000/svg" viewBox="0 0 1200 1200"><defs><style>.cls-1{fill:url(#radial-gradient);}.cls-2{fill:url(#radial-gradient-4);}</style><radialGradient id="radial-gradient" cx="1082.04" cy="728.09" r="597.21" gradientTransform="rotate(-165 830.13 700.69)" gradientUnits="userSpaceOnUse"><stop offset="0" stop-color="#ffc30c"/><stop offset="1" stop-color="#f16522"/></radialGradient><radialGradient id="radial-gradient-4" cx="1084.72" cy="745.79" r="46.86" gradientTransform="rotate(-165 830.13 700.69)" gradientUnits="userSpaceOnUse"><stop offset="0" stop-color="#537984"/><stop offset="1" stop-color="#425669"/></radialGradient></defs><path class="cls-1" d="M486.77 989c81.08 139.74 260 187.25 399.65 106.09s187.07-260.28 106-400c-51.32-88.45-22.48 18-324.16 24C513.54 978.41 435.45 900.55 486.77 989zM991.85 480.82c80.37-140.16 32-319-108-399.45s-318.72-32-399.09 108.16c-50.88 88.71 27.07 38 183 296.4 301.5 4.4 273.24 83.68 324.09-5.11zM301.15 882.33c102.23-.21 19.47-14.95 165.08-279.26-147-263.61-64.38-306.21-166.58-305.94C138.2 297.54 7.62 428.84 8 590.47s131.67 292.29 293.15 291.86z"/><path class="cls-2" d="M554.11 587.29a46.86 46.86 0 1 1 33.28 57.36 46.86 46.86 0 0 1-33.28-57.36z"/></svg>