<svg id="Layer_1" data-name="Layer 1" xmlns="http://www.w3.org/2000/svg" xmlns:xlink="http://www.w3.org/1999/xlink" viewBox="0 0 58 58"><defs><style>.cls-1{fill:#61B594;}.cls-2{mask:url(#mask);}.cls-3{fill:#61B594;}</style><mask id="mask" x="-42.42" y="-42.42" width="142.84" height="142.85" maskUnits="userSpaceOnUse"><g id="SvgjsMask1070"><g id="SvgjsUse1068"><circle class="cls-1" cx="29" cy="29" r="28.34"/></g><g id="SvgjsUse1069"><path d="M34.36,31.89l5.14,7.86a1.14,1.14,0,0,1,0,1.22,1.19,1.19,0,0,1-1,.61H35.41a1.14,1.14,0,0,1-1-.54l-5.17-8.2H23.2v7.55A1.21,1.21,0,0,1,22,41.58H19.43a1.21,1.21,0,0,1-1.19-1.19V29.2A1.21,1.21,0,0,1,19.43,28H29.9c2,0,3.3-.54,4-1.7a3,3,0,0,0,.34-1.56,3.05,3.05,0,0,0-1.05-2.52,4.49,4.49,0,0,0-3.13-1H19.43a1.21,1.21,0,0,1-1.19-1.19V17.61a1.21,1.21,0,0,1,1.19-1.19H30.34a9,9,0,0,1,6.36,2.24,7.78,7.78,0,0,1,2.48,6.09,7,7,0,0,1-4.25,6.9C34.76,31.72,34.56,31.82,34.36,31.89Z"/></g></g></mask></defs><title>Artboard 1</title><g class="cls-2"><rect id="SvgjsRect1071" class="cls-3" x="-42.42" y="-42.42" width="142.84" height="142.85"/></g></svg>